<svg xmlns:xlink="http://www.w3.org/1999/xlink" width="360pt" height="216pt" viewBox="0 0 360 216" xmlns="http://www.w3.org/2000/svg" version="1.1">
 <metadata>
  <rdf:rdf xmlns:dc="http://purl.org/dc/elements/1.1/" xmlns:cc="http://creativecommons.org/ns#" xmlns:rdf="http://www.w3.org/1999/02/22-rdf-syntax-ns#">
   <cc:work>
    <dc:type rdf:resource="http://purl.org/dc/dcmitype/StillImage"></dc:type>
    <dc:date>2022-10-16T23:19:59.286029</dc:date>
    <dc:format>image/svg+xml</dc:format>
    <dc:creator>
     <cc:agent>
      <dc:title>Matplotlib v3.5.3, https://matplotlib.org/</dc:title>
     </cc:agent>
    </dc:creator>
   </cc:work>
  </rdf:rdf>
 </metadata>
 <defs>
  <style type="text/css">*{stroke-linejoin: round; stroke-linecap: butt}</style>
 </defs>
 <g id="figure_1">
  <g id="patch_1">
   <path d="M 0 216 
L 360 216 
L 360 0 
L 0 0 
z
" style="fill: #ffffff"></path>
  </g>
  <g id="axes_1">
   <g id="patch_2">
    <path d="M 18.775399 201.025354 
L 354.296604 201.025354 
L 354.296604 6.434646 
L 18.775399 6.434646 
z
" style="fill: #ffffff"></path>
   </g>
   <g id="matplotlib.axis_1">
    <g id="xtick_1">
     <g id="line2d_1">
      <path d="M 18.775399 201.025354 
L 18.775399 6.434646 
" clip-path="url(#p82ff4feabf)" style="fill: none; stroke: #000000; stroke-opacity: 0.1; stroke-width: 0.5; stroke-linecap: square"></path>
     </g>
     <g id="line2d_2">
      <defs>
       <path id="md1b3965f73" d="M 0 0 
L 0 -2.5 
" style="stroke: #000000; stroke-width: 0.5"></path>
      </defs>
      <g>
       <use xlink:href="#md1b3965f73" x="18.775399" y="201.025354" style="stroke: #000000; stroke-width: 0.5"></use>
      </g>
     </g>
     <g id="text_1">
      <!-- $-2$ -->
      <g transform="translate(12.855399 210.604104)scale(0.08 -0.08)">
       <defs>
        <path id="DejaVuSans-2212" d="M 678 2272 
L 4684 2272 
L 4684 1741 
L 678 1741 
L 678 2272 
z
" transform="scale(0.015625)"></path>
        <path id="DejaVuSans-32" d="M 1228 531 
L 3431 531 
L 3431 0 
L 469 0 
L 469 531 
Q 828 903 1448 1529 
Q 2069 2156 2228 2338 
Q 2531 2678 2651 2914 
Q 2772 3150 2772 3378 
Q 2772 3750 2511 3984 
Q 2250 4219 1831 4219 
Q 1534 4219 1204 4116 
Q 875 4013 500 3803 
L 500 4441 
Q 881 4594 1212 4672 
Q 1544 4750 1819 4750 
Q 2544 4750 2975 4387 
Q 3406 4025 3406 3419 
Q 3406 3131 3298 2873 
Q 3191 2616 2906 2266 
Q 2828 2175 2409 1742 
Q 1991 1309 1228 531 
z
" transform="scale(0.015625)"></path>
       </defs>
       <use xlink:href="#DejaVuSans-2212" transform="translate(0 0.78125)"></use>
       <use xlink:href="#DejaVuSans-32" transform="translate(83.789062 0.78125)"></use>
      </g>
     </g>
    </g>
    <g id="xtick_2">
     <g id="line2d_3">
      <path d="M 102.6557 201.025354 
L 102.6557 6.434646 
" clip-path="url(#p82ff4feabf)" style="fill: none; stroke: #000000; stroke-opacity: 0.1; stroke-width: 0.5; stroke-linecap: square"></path>
     </g>
     <g id="line2d_4">
      <g>
       <use xlink:href="#md1b3965f73" x="102.6557" y="201.025354" style="stroke: #000000; stroke-width: 0.5"></use>
      </g>
     </g>
     <g id="text_2">
      <!-- $-1$ -->
      <g transform="translate(96.7357 210.604104)scale(0.08 -0.08)">
       <defs>
        <path id="DejaVuSans-31" d="M 794 531 
L 1825 531 
L 1825 4091 
L 703 3866 
L 703 4441 
L 1819 4666 
L 2450 4666 
L 2450 531 
L 3481 531 
L 3481 0 
L 794 0 
L 794 531 
z
" transform="scale(0.015625)"></path>
       </defs>
       <use xlink:href="#DejaVuSans-2212" transform="translate(0 0.09375)"></use>
       <use xlink:href="#DejaVuSans-31" transform="translate(83.789062 0.09375)"></use>
      </g>
     </g>
    </g>
    <g id="xtick_3">
     <g id="line2d_5">
      <path d="M 186.536002 201.025354 
L 186.536002 6.434646 
" clip-path="url(#p82ff4feabf)" style="fill: none; stroke: #000000; stroke-opacity: 0.1; stroke-width: 0.5; stroke-linecap: square"></path>
     </g>
     <g id="line2d_6">
      <g>
       <use xlink:href="#md1b3965f73" x="186.536002" y="201.025354" style="stroke: #000000; stroke-width: 0.5"></use>
      </g>
     </g>
     <g id="text_3">
      <!-- $0$ -->
      <g transform="translate(183.976002 210.604104)scale(0.08 -0.08)">
       <defs>
        <path id="DejaVuSans-30" d="M 2034 4250 
Q 1547 4250 1301 3770 
Q 1056 3291 1056 2328 
Q 1056 1369 1301 889 
Q 1547 409 2034 409 
Q 2525 409 2770 889 
Q 3016 1369 3016 2328 
Q 3016 3291 2770 3770 
Q 2525 4250 2034 4250 
z
M 2034 4750 
Q 2819 4750 3233 4129 
Q 3647 3509 3647 2328 
Q 3647 1150 3233 529 
Q 2819 -91 2034 -91 
Q 1250 -91 836 529 
Q 422 1150 422 2328 
Q 422 3509 836 4129 
Q 1250 4750 2034 4750 
z
" transform="scale(0.015625)"></path>
       </defs>
       <use xlink:href="#DejaVuSans-30" transform="translate(0 0.78125)"></use>
      </g>
     </g>
    </g>
    <g id="xtick_4">
     <g id="line2d_7">
      <path d="M 270.416303 201.025354 
L 270.416303 6.434646 
" clip-path="url(#p82ff4feabf)" style="fill: none; stroke: #000000; stroke-opacity: 0.1; stroke-width: 0.5; stroke-linecap: square"></path>
     </g>
     <g id="line2d_8">
      <g>
       <use xlink:href="#md1b3965f73" x="270.416303" y="201.025354" style="stroke: #000000; stroke-width: 0.5"></use>
      </g>
     </g>
     <g id="text_4">
      <!-- $1$ -->
      <g transform="translate(267.856303 210.604104)scale(0.08 -0.08)">
       <use xlink:href="#DejaVuSans-31" transform="translate(0 0.09375)"></use>
      </g>
     </g>
    </g>
    <g id="xtick_5">
     <g id="line2d_9">
      <path d="M 354.296604 201.025354 
L 354.296604 6.434646 
" clip-path="url(#p82ff4feabf)" style="fill: none; stroke: #000000; stroke-opacity: 0.1; stroke-width: 0.5; stroke-linecap: square"></path>
     </g>
     <g id="line2d_10">
      <g>
       <use xlink:href="#md1b3965f73" x="354.296604" y="201.025354" style="stroke: #000000; stroke-width: 0.5"></use>
      </g>
     </g>
     <g id="text_5">
      <!-- $2$ -->
      <g transform="translate(351.736604 210.604104)scale(0.08 -0.08)">
       <use xlink:href="#DejaVuSans-32" transform="translate(0 0.78125)"></use>
      </g>
     </g>
    </g>
   </g>
   <g id="matplotlib.axis_2">
    <g id="ytick_1">
     <g id="line2d_11">
      <path d="M 18.775399 201.025354 
L 354.296604 201.025354 
" clip-path="url(#p82ff4feabf)" style="fill: none; stroke: #000000; stroke-opacity: 0.1; stroke-width: 0.5; stroke-linecap: square"></path>
     </g>
     <g id="line2d_12">
      <defs>
       <path id="m063a5339eb" d="M 0 0 
L 2.5 0 
" style="stroke: #000000; stroke-width: 0.5"></path>
      </defs>
      <g>
       <use xlink:href="#m063a5339eb" x="18.775399" y="201.025354" style="stroke: #000000; stroke-width: 0.5"></use>
      </g>
     </g>
     <g id="text_6">
      <!-- $-2$ -->
      <g transform="translate(3.435399 204.064729)scale(0.08 -0.08)">
       <use xlink:href="#DejaVuSans-2212" transform="translate(0 0.78125)"></use>
       <use xlink:href="#DejaVuSans-32" transform="translate(83.789062 0.78125)"></use>
      </g>
     </g>
    </g>
    <g id="ytick_2">
     <g id="line2d_13">
      <path d="M 18.775399 152.377677 
L 354.296604 152.377677 
" clip-path="url(#p82ff4feabf)" style="fill: none; stroke: #000000; stroke-opacity: 0.1; stroke-width: 0.5; stroke-linecap: square"></path>
     </g>
     <g id="line2d_14">
      <g>
       <use xlink:href="#m063a5339eb" x="18.775399" y="152.377677" style="stroke: #000000; stroke-width: 0.5"></use>
      </g>
     </g>
     <g id="text_7">
      <!-- $-1$ -->
      <g transform="translate(3.435399 155.417052)scale(0.08 -0.08)">
       <use xlink:href="#DejaVuSans-2212" transform="translate(0 0.09375)"></use>
       <use xlink:href="#DejaVuSans-31" transform="translate(83.789062 0.09375)"></use>
      </g>
     </g>
    </g>
    <g id="ytick_3">
     <g id="line2d_15">
      <path d="M 18.775399 103.73 
L 354.296604 103.73 
" clip-path="url(#p82ff4feabf)" style="fill: none; stroke: #000000; stroke-opacity: 0.1; stroke-width: 0.5; stroke-linecap: square"></path>
     </g>
     <g id="line2d_16">
      <g>
       <use xlink:href="#m063a5339eb" x="18.775399" y="103.73" style="stroke: #000000; stroke-width: 0.5"></use>
      </g>
     </g>
     <g id="text_8">
      <!-- $0$ -->
      <g transform="translate(10.155399 106.769375)scale(0.08 -0.08)">
       <use xlink:href="#DejaVuSans-30" transform="translate(0 0.78125)"></use>
      </g>
     </g>
    </g>
    <g id="ytick_4">
     <g id="line2d_17">
      <path d="M 18.775399 55.082323 
L 354.296604 55.082323 
" clip-path="url(#p82ff4feabf)" style="fill: none; stroke: #000000; stroke-opacity: 0.1; stroke-width: 0.5; stroke-linecap: square"></path>
     </g>
     <g id="line2d_18">
      <g>
       <use xlink:href="#m063a5339eb" x="18.775399" y="55.082323" style="stroke: #000000; stroke-width: 0.5"></use>
      </g>
     </g>
     <g id="text_9">
      <!-- $1$ -->
      <g transform="translate(10.155399 58.121698)scale(0.08 -0.08)">
       <use xlink:href="#DejaVuSans-31" transform="translate(0 0.09375)"></use>
      </g>
     </g>
    </g>
    <g id="ytick_5">
     <g id="line2d_19">
      <path d="M 18.775399 6.434646 
L 354.296604 6.434646 
" clip-path="url(#p82ff4feabf)" style="fill: none; stroke: #000000; stroke-opacity: 0.1; stroke-width: 0.5; stroke-linecap: square"></path>
     </g>
     <g id="line2d_20">
      <g>
       <use xlink:href="#m063a5339eb" x="18.775399" y="6.434646" style="stroke: #000000; stroke-width: 0.5"></use>
      </g>
     </g>
     <g id="text_10">
      <!-- $2$ -->
      <g transform="translate(10.155399 9.474021)scale(0.08 -0.08)">
       <use xlink:href="#DejaVuSans-32" transform="translate(0 0.78125)"></use>
      </g>
     </g>
    </g>
   </g>
   <g id="PathCollection_1"></g>
   <g id="PathCollection_2">
    <path d="M 119.43176 104.808779 
L 118.861534 103.73 
L 119.43176 102.651221 
L 128.962401 103.73 
L 119.43176 104.808779 
" clip-path="url(#p82ff4feabf)" style="fill: none; stroke: #000004"></path>
   </g>
   <g id="PathCollection_3">
    <path d="M 119.43176 123.075105 
L 104.77389 113.459535 
L 102.6557 109.044702 
L 101.073887 103.73 
L 102.6557 98.415298 
L 104.77389 94.000465 
L 119.43176 84.384895 
L 136.207821 84.974265 
L 145.683304 94.000465 
L 148.85343 103.73 
L 145.683304 113.459535 
L 136.207821 122.485735 
L 119.43176 123.075105 
z
" clip-path="url(#p82ff4feabf)" style="fill: none; stroke: #0d0829"></path>
   </g>
   <g id="PathCollection_4">
    <path d="M 102.6557 125.498149 
L 99.478564 123.189071 
L 91.486625 113.459535 
L 89.028773 103.73 
L 91.486625 94.000465 
L 99.478564 84.270929 
L 102.6557 81.961851 
L 119.43176 75.391979 
L 136.207821 75.737426 
L 150.56813 84.270929 
L 152.983881 86.777458 
L 156.2121 94.000465 
L 157.593362 103.73 
L 156.2121 113.459535 
L 152.983881 120.682542 
L 150.56813 123.189071 
L 136.207821 131.722574 
L 119.43176 132.068021 
L 102.6557 125.498149 
z
" clip-path="url(#p82ff4feabf)" style="fill: none; stroke: #280b53"></path>
   </g>
   <g id="PathCollection_5">
    <path d="M 102.6557 135.504754 
L 97.861668 132.918606 
L 85.87964 123.693263 
L 85.365312 123.189071 
L 79.231975 113.459535 
L 77.34572 103.73 
L 79.231975 94.000465 
L 85.365312 84.270929 
L 85.87964 83.766737 
L 97.861668 74.541394 
L 102.6557 71.955246 
L 119.43176 67.190329 
L 136.207821 67.440871 
L 152.306017 74.541394 
L 152.983881 74.946416 
L 159.664415 84.270929 
L 163.257459 94.000465 
L 164.362469 103.73 
L 163.257459 113.459535 
L 159.664415 123.189071 
L 152.983881 132.513584 
L 152.306017 132.918606 
L 136.207821 140.019129 
L 119.43176 140.269671 
L 102.6557 135.504754 
z
" clip-path="url(#p82ff4feabf)" style="fill: none; stroke: #490b6a"></path>
   </g>
   <g id="PathCollection_6">
    <path d="M 102.6557 144.967519 
L 97.333188 142.648142 
L 85.87964 136.605898 
L 80.812049 132.918606 
L 71.805529 123.189071 
L 69.10358 117.759761 
L 66.854459 113.459535 
L 65.178104 103.73 
L 66.854459 94.000465 
L 69.10358 89.700239 
L 71.805529 84.270929 
L 80.812049 74.541394 
L 85.87964 70.854102 
L 97.333188 64.811858 
L 102.6557 62.492481 
L 119.43176 58.672849 
L 136.207821 58.873687 
L 152.874043 64.811858 
L 152.983881 64.856826 
L 162.331816 74.541394 
L 167.608035 84.270929 
L 169.759941 91.845844 
L 170.180041 94.000465 
L 170.821368 103.73 
L 170.180041 113.459535 
L 169.759941 115.614156 
L 167.608035 123.189071 
L 162.331816 132.918606 
L 152.983881 142.603174 
L 152.874043 142.648142 
L 136.207821 148.586313 
L 119.43176 148.787151 
L 102.6557 144.967519 
z
" clip-path="url(#p82ff4feabf)" style="fill: none; stroke: #65156e"></path>
   </g>
   <g id="PathCollection_7">
    <path d="M 102.6557 155.474863 
L 94.287232 152.377677 
L 85.87964 149.070262 
L 74.953417 142.648142 
L 69.10358 138.010111 
L 63.352383 132.918606 
L 56.237462 123.189071 
L 52.603577 113.459535 
L 52.327519 111.12784 
L 51.164516 103.73 
L 52.327519 96.33216 
L 52.603577 94.000465 
L 56.237462 84.270929 
L 63.352383 74.541394 
L 69.10358 69.449889 
L 74.953417 64.811858 
L 85.87964 58.389738 
L 94.287232 55.082323 
L 102.6557 51.985137 
L 119.43176 48.885271 
L 136.207821 49.048264 
L 152.983881 53.906459 
L 154.638216 55.082323 
L 165.763933 64.811858 
L 169.759941 70.361989 
L 171.519837 74.541394 
L 174.241806 84.270929 
L 175.632028 94.000465 
L 176.059579 103.73 
L 175.632028 113.459535 
L 174.241806 123.189071 
L 171.519837 132.918606 
L 169.759941 137.098011 
L 165.763933 142.648142 
L 154.638216 152.377677 
L 152.983881 153.553541 
L 136.207821 158.411736 
L 119.43176 158.574729 
L 102.6557 155.474863 
" clip-path="url(#p82ff4feabf)" style="fill: none; stroke: #82206c"></path>
   </g>
   <g id="PathCollection_8">
    <path d="M 85.87964 164.729553 
L 79.895835 162.107213 
L 69.10358 157.104749 
L 61.320791 152.377677 
L 52.327519 145.223712 
L 49.205623 142.648142 
L 40.441403 132.918606 
L 35.551459 123.253301 
L 35.509668 123.189071 
L 31.565298 113.459535 
L 30.352241 103.73 
L 31.565298 94.000465 
L 35.509668 84.270929 
L 35.551459 84.206699 
L 40.441403 74.541394 
L 49.205623 64.811858 
L 52.327519 62.236288 
L 61.320791 55.082323 
L 69.10358 50.355251 
L 79.895835 45.352787 
L 85.87964 42.730447 
L 102.6557 37.875481 
L 119.43176 35.762775 
L 136.207821 35.873862 
L 152.983881 39.184954 
L 162.868555 45.352787 
L 169.759941 50.948627 
L 172.297067 55.082323 
L 176.601834 64.811858 
L 179.027919 74.541394 
L 180.388904 84.270929 
L 181.084015 94.000465 
L 181.29779 103.73 
L 181.084015 113.459535 
L 180.388904 123.189071 
L 179.027919 132.918606 
L 176.601834 142.648142 
L 172.297067 152.377677 
L 169.759941 156.511373 
L 162.868555 162.107213 
L 152.983881 168.275046 
L 136.207821 171.586138 
L 119.43176 171.697225 
L 102.6557 169.584519 
L 85.87964 164.729553 
z
" clip-path="url(#p82ff4feabf)" style="fill: none; stroke: #9f2a63"></path>
   </g>
   <g id="PathCollection_9">
    <path d="M 186.536002 6.434646 
L 186.536002 16.164181 
L 186.536002 25.893717 
L 186.536002 35.623252 
L 186.536002 45.352787 
L 186.536002 55.082323 
L 186.536002 64.811858 
L 186.536002 74.541394 
L 186.536002 84.270929 
L 186.536002 94.000465 
L 186.536002 103.73 
L 186.536002 113.459535 
L 186.536002 123.189071 
L 186.536002 132.918606 
L 186.536002 142.648142 
L 186.536002 152.377677 
L 186.536002 162.107213 
L 186.536002 171.836748 
L 186.536002 181.566283 
L 186.536002 191.295819 
L 186.536002 201.025354 
" clip-path="url(#p82ff4feabf)" style="fill: none; stroke: #bc3754"></path>
   </g>
   <g id="PathCollection_10">
    <path d="M 220.088122 168.275046 
L 236.864182 171.586138 
L 253.640243 171.697225 
L 270.416303 169.584519 
L 287.192363 164.729553 
L 293.176169 162.107213 
L 303.968424 157.104749 
L 311.751212 152.377677 
L 320.744484 145.223712 
L 323.866381 142.648142 
L 332.6306 132.918606 
L 337.520544 123.253301 
L 337.562335 123.189071 
L 341.506705 113.459535 
L 342.719762 103.73 
L 341.506705 94.000465 
L 337.562335 84.270929 
L 337.520544 84.206699 
L 332.6306 74.541394 
L 323.866381 64.811858 
L 320.744484 62.236288 
L 311.751212 55.082323 
L 303.968424 50.355251 
L 293.176169 45.352787 
L 287.192363 42.730447 
L 270.416303 37.875481 
L 253.640243 35.762775 
L 236.864182 35.873862 
L 220.088122 39.184954 
L 210.203448 45.352787 
L 203.312062 50.948627 
L 200.774936 55.082323 
L 196.470169 64.811858 
L 194.044084 74.541394 
L 192.683099 84.270929 
L 191.987988 94.000465 
L 191.774213 103.73 
L 191.987988 113.459535 
L 192.683099 123.189071 
L 194.044084 132.918606 
L 196.470169 142.648142 
L 200.774936 152.377677 
L 203.312062 156.511373 
L 210.203448 162.107213 
L 220.088122 168.275046 
z
" clip-path="url(#p82ff4feabf)" style="fill: none; stroke: #d44842"></path>
   </g>
   <g id="PathCollection_11">
    <path d="M 220.088122 153.553541 
L 236.864182 158.411736 
L 253.640243 158.574729 
L 270.416303 155.474863 
L 278.784771 152.377677 
L 287.192363 149.070262 
L 298.118586 142.648142 
L 303.968424 138.010111 
L 309.71962 132.918606 
L 316.834541 123.189071 
L 320.468426 113.459535 
L 320.744484 111.12784 
L 321.907487 103.73 
L 320.744484 96.33216 
L 320.468426 94.000465 
L 316.834541 84.270929 
L 309.71962 74.541394 
L 303.968424 69.449889 
L 298.118586 64.811858 
L 287.192363 58.389738 
L 278.784771 55.082323 
L 270.416303 51.985137 
L 253.640243 48.885271 
L 236.864182 49.048264 
L 220.088122 53.906459 
L 218.433787 55.082323 
L 207.30807 64.811858 
L 203.312062 70.361989 
L 201.552166 74.541394 
L 198.830197 84.270929 
L 197.439975 94.000465 
L 197.012424 103.73 
L 197.439975 113.459535 
L 198.830197 123.189071 
L 201.552166 132.918606 
L 203.312062 137.098011 
L 207.30807 142.648142 
L 218.433787 152.377677 
L 220.088122 153.553541 
z
" clip-path="url(#p82ff4feabf)" style="fill: none; stroke: #e8602d"></path>
   </g>
   <g id="PathCollection_12">
    <path d="M 236.864182 148.586313 
L 253.640243 148.787151 
L 270.416303 144.967519 
L 275.738815 142.648142 
L 287.192363 136.605898 
L 292.259954 132.918606 
L 301.266474 123.189071 
L 303.968424 117.759761 
L 306.217544 113.459535 
L 307.8939 103.73 
L 306.217544 94.000465 
L 303.968424 89.700239 
L 301.266474 84.270929 
L 292.259954 74.541394 
L 287.192363 70.854102 
L 275.738815 64.811858 
L 270.416303 62.492481 
L 253.640243 58.672849 
L 236.864182 58.873687 
L 220.19796 64.811858 
L 220.088122 64.856826 
L 210.740187 74.541394 
L 205.463969 84.270929 
L 203.312062 91.845844 
L 202.891962 94.000465 
L 202.250635 103.73 
L 202.891962 113.459535 
L 203.312062 115.614156 
L 205.463969 123.189071 
L 210.740187 132.918606 
L 220.088122 142.603174 
L 220.19796 142.648142 
L 236.864182 148.586313 
z
" clip-path="url(#p82ff4feabf)" style="fill: none; stroke: #f57d15"></path>
   </g>
   <g id="PathCollection_13">
    <path d="M 236.864182 140.019129 
L 253.640243 140.269671 
L 270.416303 135.504754 
L 275.210335 132.918606 
L 287.192363 123.693263 
L 287.706691 123.189071 
L 293.840028 113.459535 
L 295.726283 103.73 
L 293.840028 94.000465 
L 287.706691 84.270929 
L 287.192363 83.766737 
L 275.210335 74.541394 
L 270.416303 71.955246 
L 253.640243 67.190329 
L 236.864182 67.440871 
L 220.765986 74.541394 
L 220.088122 74.946416 
L 213.407589 84.270929 
L 209.814544 94.000465 
L 208.709534 103.73 
L 209.814544 113.459535 
L 213.407589 123.189071 
L 220.088122 132.513584 
L 220.765986 132.918606 
L 236.864182 140.019129 
z
" clip-path="url(#p82ff4feabf)" style="fill: none; stroke: #fb9d07"></path>
   </g>
   <g id="PathCollection_14">
    <path d="M 236.864182 131.722574 
L 253.640243 132.068021 
L 270.416303 125.498149 
L 273.593439 123.189071 
L 281.585378 113.459535 
L 284.04323 103.73 
L 281.585378 94.000465 
L 273.593439 84.270929 
L 270.416303 81.961851 
L 253.640243 75.391979 
L 236.864182 75.737426 
L 222.503873 84.270929 
L 220.088122 86.777458 
L 216.859903 94.000465 
L 215.478641 103.73 
L 216.859903 113.459535 
L 220.088122 120.682542 
L 222.503873 123.189071 
L 236.864182 131.722574 
z
" clip-path="url(#p82ff4feabf)" style="fill: none; stroke: #fac228"></path>
   </g>
   <g id="PathCollection_15">
    <path d="M 236.864182 122.485735 
L 253.640243 123.075105 
L 268.298113 113.459535 
L 270.416303 109.044702 
L 271.998116 103.73 
L 270.416303 98.415298 
L 268.298113 94.000465 
L 253.640243 84.384895 
L 236.864182 84.974265 
L 227.388699 94.000465 
L 224.218573 103.73 
L 227.388699 113.459535 
L 236.864182 122.485735 
z
" clip-path="url(#p82ff4feabf)" style="fill: none; stroke: #f3e55d"></path>
   </g>
   <g id="PathCollection_16">
    <path d="M 253.640243 104.808779 
L 254.210469 103.73 
L 253.640243 102.651221 
L 244.109602 103.73 
L 253.640243 104.808779 
z
" clip-path="url(#p82ff4feabf)" style="fill: none; stroke: #fcffa4"></path>
   </g>
   <g id="PathCollection_17"></g>
   <g id="PathCollection_18">
    <path d="M 119.43176 104.808779 
L 128.962401 103.73 
L 119.43176 102.651221 
L 118.861534 103.73 
z
" clip-path="url(#p82ff4feabf)" style="fill: #000004"></path>
   </g>
   <g id="PathCollection_19">
    <path d="M 119.43176 123.075105 
L 136.207821 122.485735 
L 145.683304 113.459535 
L 148.85343 103.73 
L 145.683304 94.000465 
L 136.207821 84.974265 
L 119.43176 84.384895 
L 104.77389 94.000465 
L 102.6557 98.415298 
L 101.073887 103.73 
L 102.6557 109.044702 
L 104.77389 113.459535 
z
M 118.861534 103.73 
L 119.43176 102.651221 
L 128.962401 103.73 
L 119.43176 104.808779 
z
" clip-path="url(#p82ff4feabf)" style="fill: #040314"></path>
   </g>
   <g id="PathCollection_20">
    <path d="M 102.6557 125.498149 
L 119.43176 132.068021 
L 136.207821 131.722574 
L 150.56813 123.189071 
L 152.983881 120.682542 
L 156.2121 113.459535 
L 157.593362 103.73 
L 156.2121 94.000465 
L 152.983881 86.777458 
L 150.56813 84.270929 
L 136.207821 75.737426 
L 119.43176 75.391979 
L 102.6557 81.961851 
L 99.478564 84.270929 
L 91.486625 94.000465 
L 89.028773 103.73 
L 91.486625 113.459535 
L 99.478564 123.189071 
z
M 104.77389 113.459535 
L 102.6557 109.044702 
L 101.073887 103.73 
L 102.6557 98.415298 
L 104.77389 94.000465 
L 119.43176 84.384895 
L 136.207821 84.974265 
L 145.683304 94.000465 
L 148.85343 103.73 
L 145.683304 113.459535 
L 136.207821 122.485735 
L 119.43176 123.075105 
z
" clip-path="url(#p82ff4feabf)" style="fill: #190c3e"></path>
   </g>
   <g id="PathCollection_21">
    <path d="M 102.6557 135.504754 
L 119.43176 140.269671 
L 136.207821 140.019129 
L 152.306017 132.918606 
L 152.983881 132.513584 
L 159.664415 123.189071 
L 163.257459 113.459535 
L 164.362469 103.73 
L 163.257459 94.000465 
L 159.664415 84.270929 
L 152.983881 74.946416 
L 152.306017 74.541394 
L 136.207821 67.440871 
L 119.43176 67.190329 
L 102.6557 71.955246 
L 97.861668 74.541394 
L 85.87964 83.766737 
L 85.365312 84.270929 
L 79.231975 94.000465 
L 77.34572 103.73 
L 79.231975 113.459535 
L 85.365312 123.189071 
L 85.87964 123.693263 
L 97.861668 132.918606 
z
M 99.478564 123.189071 
L 91.486625 113.459535 
L 89.028773 103.73 
L 91.486625 94.000465 
L 99.478564 84.270929 
L 102.6557 81.961851 
L 119.43176 75.391979 
L 136.207821 75.737426 
L 150.56813 84.270929 
L 152.983881 86.777458 
L 156.2121 94.000465 
L 157.593362 103.73 
L 156.2121 113.459535 
L 152.983881 120.682542 
L 150.56813 123.189071 
L 136.207821 131.722574 
L 119.43176 132.068021 
L 102.6557 125.498149 
z
" clip-path="url(#p82ff4feabf)" style="fill: #390963"></path>
   </g>
   <g id="PathCollection_22">
    <path d="M 102.6557 144.967519 
L 119.43176 148.787151 
L 136.207821 148.586313 
L 152.874043 142.648142 
L 152.983881 142.603174 
L 162.331816 132.918606 
L 167.608035 123.189071 
L 169.759941 115.614156 
L 170.180041 113.459535 
L 170.821368 103.73 
L 170.180041 94.000465 
L 169.759941 91.845844 
L 167.608035 84.270929 
L 162.331816 74.541394 
L 152.983881 64.856826 
L 152.874043 64.811858 
L 136.207821 58.873687 
L 119.43176 58.672849 
L 102.6557 62.492481 
L 97.333188 64.811858 
L 85.87964 70.854102 
L 80.812049 74.541394 
L 71.805529 84.270929 
L 69.10358 89.700239 
L 66.854459 94.000465 
L 65.178104 103.73 
L 66.854459 113.459535 
L 69.10358 117.759761 
L 71.805529 123.189071 
L 80.812049 132.918606 
L 85.87964 136.605898 
L 97.333188 142.648142 
z
M 97.861668 132.918606 
L 85.87964 123.693263 
L 85.365312 123.189071 
L 79.231975 113.459535 
L 77.34572 103.73 
L 79.231975 94.000465 
L 85.365312 84.270929 
L 85.87964 83.766737 
L 97.861668 74.541394 
L 102.6557 71.955246 
L 119.43176 67.190329 
L 136.207821 67.440871 
L 152.306017 74.541394 
L 152.983881 74.946416 
L 159.664415 84.270929 
L 163.257459 94.000465 
L 164.362469 103.73 
L 163.257459 113.459535 
L 159.664415 123.189071 
L 152.983881 132.513584 
L 152.306017 132.918606 
L 136.207821 140.019129 
L 119.43176 140.269671 
L 102.6557 135.504754 
z
" clip-path="url(#p82ff4feabf)" style="fill: #57106e"></path>
   </g>
   <g id="PathCollection_23">
    <path d="M 102.6557 155.474863 
L 119.43176 158.574729 
L 136.207821 158.411736 
L 152.983881 153.553541 
L 154.638216 152.377677 
L 165.763933 142.648142 
L 169.759941 137.098011 
L 171.519837 132.918606 
L 174.241806 123.189071 
L 175.632028 113.459535 
L 176.059579 103.73 
L 175.632028 94.000465 
L 174.241806 84.270929 
L 171.519837 74.541394 
L 169.759941 70.361989 
L 165.763933 64.811858 
L 154.638216 55.082323 
L 152.983881 53.906459 
L 136.207821 49.048264 
L 119.43176 48.885271 
L 102.6557 51.985137 
L 94.287232 55.082323 
L 85.87964 58.389738 
L 74.953417 64.811858 
L 69.10358 69.449889 
L 63.352383 74.541394 
L 56.237462 84.270929 
L 52.603577 94.000465 
L 52.327519 96.33216 
L 51.164516 103.73 
L 52.327519 111.12784 
L 52.603577 113.459535 
L 56.237462 123.189071 
L 63.352383 132.918606 
L 69.10358 138.010111 
L 74.953417 142.648142 
L 85.87964 149.070262 
L 94.287232 152.377677 
z
M 97.333188 142.648142 
L 85.87964 136.605898 
L 80.812049 132.918606 
L 71.805529 123.189071 
L 69.10358 117.759761 
L 66.854459 113.459535 
L 65.178104 103.73 
L 66.854459 94.000465 
L 69.10358 89.700239 
L 71.805529 84.270929 
L 80.812049 74.541394 
L 85.87964 70.854102 
L 97.333188 64.811858 
L 102.6557 62.492481 
L 119.43176 58.672849 
L 136.207821 58.873687 
L 152.874043 64.811858 
L 152.983881 64.856826 
L 162.331816 74.541394 
L 167.608035 84.270929 
L 169.759941 91.845844 
L 170.180041 94.000465 
L 170.821368 103.73 
L 170.180041 113.459535 
L 169.759941 115.614156 
L 167.608035 123.189071 
L 162.331816 132.918606 
L 152.983881 142.603174 
L 152.874043 142.648142 
L 136.207821 148.586313 
L 119.43176 148.787151 
L 102.6557 144.967519 
z
" clip-path="url(#p82ff4feabf)" style="fill: #741a6e"></path>
   </g>
   <g id="PathCollection_24">
    <path d="M 85.87964 164.729553 
L 102.6557 169.584519 
L 119.43176 171.697225 
L 136.207821 171.586138 
L 152.983881 168.275046 
L 162.868555 162.107213 
L 169.759941 156.511373 
L 172.297067 152.377677 
L 176.601834 142.648142 
L 179.027919 132.918606 
L 180.388904 123.189071 
L 181.084015 113.459535 
L 181.29779 103.73 
L 181.084015 94.000465 
L 180.388904 84.270929 
L 179.027919 74.541394 
L 176.601834 64.811858 
L 172.297067 55.082323 
L 169.759941 50.948627 
L 162.868555 45.352787 
L 152.983881 39.184954 
L 136.207821 35.873862 
L 119.43176 35.762775 
L 102.6557 37.875481 
L 85.87964 42.730447 
L 79.895835 45.352787 
L 69.10358 50.355251 
L 61.320791 55.082323 
L 52.327519 62.236288 
L 49.205623 64.811858 
L 40.441403 74.541394 
L 35.551459 84.206699 
L 35.509668 84.270929 
L 31.565298 94.000465 
L 30.352241 103.73 
L 31.565298 113.459535 
L 35.509668 123.189071 
L 35.551459 123.253301 
L 40.441403 132.918606 
L 49.205623 142.648142 
L 52.327519 145.223712 
L 61.320791 152.377677 
L 69.10358 157.104749 
L 79.895835 162.107213 
z
M 94.287232 152.377677 
L 85.87964 149.070262 
L 74.953417 142.648142 
L 69.10358 138.010111 
L 63.352383 132.918606 
L 56.237462 123.189071 
L 52.603577 113.459535 
L 52.327519 111.12784 
L 51.164516 103.73 
L 52.327519 96.33216 
L 52.603577 94.000465 
L 56.237462 84.270929 
L 63.352383 74.541394 
L 69.10358 69.449889 
L 74.953417 64.811858 
L 85.87964 58.389738 
L 94.287232 55.082323 
L 102.6557 51.985137 
L 119.43176 48.885271 
L 136.207821 49.048264 
L 152.983881 53.906459 
L 154.638216 55.082323 
L 165.763933 64.811858 
L 169.759941 70.361989 
L 171.519837 74.541394 
L 174.241806 84.270929 
L 175.632028 94.000465 
L 176.059579 103.73 
L 175.632028 113.459535 
L 174.241806 123.189071 
L 171.519837 132.918606 
L 169.759941 137.098011 
L 165.763933 142.648142 
L 154.638216 152.377677 
L 152.983881 153.553541 
L 136.207821 158.411736 
L 119.43176 158.574729 
L 102.6557 155.474863 
z
" clip-path="url(#p82ff4feabf)" style="fill: #902568"></path>
   </g>
   <g id="PathCollection_25">
    <path d="M 35.551459 201.025354 
L 52.327519 201.025354 
L 69.10358 201.025354 
L 85.87964 201.025354 
L 102.6557 201.025354 
L 119.43176 201.025354 
L 136.207821 201.025354 
L 152.983881 201.025354 
L 169.759941 201.025354 
L 186.536002 201.025354 
L 186.536002 191.295819 
L 186.536002 181.566283 
L 186.536002 171.836748 
L 186.536002 162.107213 
L 186.536002 152.377677 
L 186.536002 142.648142 
L 186.536002 132.918606 
L 186.536002 123.189071 
L 186.536002 113.459535 
L 186.536002 103.73 
L 186.536002 94.000465 
L 186.536002 84.270929 
L 186.536002 74.541394 
L 186.536002 64.811858 
L 186.536002 55.082323 
L 186.536002 45.352787 
L 186.536002 35.623252 
L 186.536002 25.893717 
L 186.536002 16.164181 
L 186.536002 6.434646 
L 169.759941 6.434646 
L 152.983881 6.434646 
L 136.207821 6.434646 
L 119.43176 6.434646 
L 102.6557 6.434646 
L 85.87964 6.434646 
L 69.10358 6.434646 
L 52.327519 6.434646 
L 35.551459 6.434646 
L 18.775399 6.434646 
L 18.775399 16.164181 
L 18.775399 25.893717 
L 18.775399 35.623252 
L 18.775399 45.352787 
L 18.775399 55.082323 
L 18.775399 64.811858 
L 18.775399 74.541394 
L 18.775399 84.270929 
L 18.775399 94.000465 
L 18.775399 103.73 
L 18.775399 113.459535 
L 18.775399 123.189071 
L 18.775399 132.918606 
L 18.775399 142.648142 
L 18.775399 152.377677 
L 18.775399 162.107213 
L 18.775399 171.836748 
L 18.775399 181.566283 
L 18.775399 191.295819 
L 18.775399 201.025354 
z
M 79.895835 162.107213 
L 69.10358 157.104749 
L 61.320791 152.377677 
L 52.327519 145.223712 
L 49.205623 142.648142 
L 40.441403 132.918606 
L 35.551459 123.253301 
L 35.509668 123.189071 
L 31.565298 113.459535 
L 30.352241 103.73 
L 31.565298 94.000465 
L 35.509668 84.270929 
L 35.551459 84.206699 
L 40.441403 74.541394 
L 49.205623 64.811858 
L 52.327519 62.236288 
L 61.320791 55.082323 
L 69.10358 50.355251 
L 79.895835 45.352787 
L 85.87964 42.730447 
L 102.6557 37.875481 
L 119.43176 35.762775 
L 136.207821 35.873862 
L 152.983881 39.184954 
L 162.868555 45.352787 
L 169.759941 50.948627 
L 172.297067 55.082323 
L 176.601834 64.811858 
L 179.027919 74.541394 
L 180.388904 84.270929 
L 181.084015 94.000465 
L 181.29779 103.73 
L 181.084015 113.459535 
L 180.388904 123.189071 
L 179.027919 132.918606 
L 176.601834 142.648142 
L 172.297067 152.377677 
L 169.759941 156.511373 
L 162.868555 162.107213 
L 152.983881 168.275046 
L 136.207821 171.586138 
L 119.43176 171.697225 
L 102.6557 169.584519 
L 85.87964 164.729553 
z
" clip-path="url(#p82ff4feabf)" style="fill: #ad305d"></path>
   </g>
   <g id="PathCollection_26">
    <path d="M 203.312062 201.025354 
L 220.088122 201.025354 
L 236.864182 201.025354 
L 253.640243 201.025354 
L 270.416303 201.025354 
L 287.192363 201.025354 
L 303.968424 201.025354 
L 320.744484 201.025354 
L 337.520544 201.025354 
L 354.296604 201.025354 
L 354.296604 191.295819 
L 354.296604 181.566283 
L 354.296604 171.836748 
L 354.296604 162.107213 
L 354.296604 152.377677 
L 354.296604 142.648142 
L 354.296604 132.918606 
L 354.296604 123.189071 
L 354.296604 113.459535 
L 354.296604 103.73 
L 354.296604 94.000465 
L 354.296604 84.270929 
L 354.296604 74.541394 
L 354.296604 64.811858 
L 354.296604 55.082323 
L 354.296604 45.352787 
L 354.296604 35.623252 
L 354.296604 25.893717 
L 354.296604 16.164181 
L 354.296604 6.434646 
L 337.520544 6.434646 
L 320.744484 6.434646 
L 303.968424 6.434646 
L 287.192363 6.434646 
L 270.416303 6.434646 
L 253.640243 6.434646 
L 236.864182 6.434646 
L 220.088122 6.434646 
L 203.312062 6.434646 
L 186.536002 6.434646 
L 186.536002 16.164181 
L 186.536002 25.893717 
L 186.536002 35.623252 
L 186.536002 45.352787 
L 186.536002 55.082323 
L 186.536002 64.811858 
L 186.536002 74.541394 
L 186.536002 84.270929 
L 186.536002 94.000465 
L 186.536002 103.73 
L 186.536002 113.459535 
L 186.536002 123.189071 
L 186.536002 132.918606 
L 186.536002 142.648142 
L 186.536002 152.377677 
L 186.536002 162.107213 
L 186.536002 171.836748 
L 186.536002 181.566283 
L 186.536002 191.295819 
L 186.536002 201.025354 
z
M 210.203448 162.107213 
L 203.312062 156.511373 
L 200.774936 152.377677 
L 196.470169 142.648142 
L 194.044084 132.918606 
L 192.683099 123.189071 
L 191.987988 113.459535 
L 191.774213 103.73 
L 191.987988 94.000465 
L 192.683099 84.270929 
L 194.044084 74.541394 
L 196.470169 64.811858 
L 200.774936 55.082323 
L 203.312062 50.948627 
L 210.203448 45.352787 
L 220.088122 39.184954 
L 236.864182 35.873862 
L 253.640243 35.762775 
L 270.416303 37.875481 
L 287.192363 42.730447 
L 293.176169 45.352787 
L 303.968424 50.355251 
L 311.751212 55.082323 
L 320.744484 62.236288 
L 323.866381 64.811858 
L 332.6306 74.541394 
L 337.520544 84.206699 
L 337.562335 84.270929 
L 341.506705 94.000465 
L 342.719762 103.73 
L 341.506705 113.459535 
L 337.562335 123.189071 
L 337.520544 123.253301 
L 332.6306 132.918606 
L 323.866381 142.648142 
L 320.744484 145.223712 
L 311.751212 152.377677 
L 303.968424 157.104749 
L 293.176169 162.107213 
L 287.192363 164.729553 
L 270.416303 169.584519 
L 253.640243 171.697225 
L 236.864182 171.586138 
L 220.088122 168.275046 
z
" clip-path="url(#p82ff4feabf)" style="fill: #c83f4b"></path>
   </g>
   <g id="PathCollection_27">
    <path d="M 220.088122 168.275046 
L 236.864182 171.586138 
L 253.640243 171.697225 
L 270.416303 169.584519 
L 287.192363 164.729553 
L 293.176169 162.107213 
L 303.968424 157.104749 
L 311.751212 152.377677 
L 320.744484 145.223712 
L 323.866381 142.648142 
L 332.6306 132.918606 
L 337.520544 123.253301 
L 337.562335 123.189071 
L 341.506705 113.459535 
L 342.719762 103.73 
L 341.506705 94.000465 
L 337.562335 84.270929 
L 337.520544 84.206699 
L 332.6306 74.541394 
L 323.866381 64.811858 
L 320.744484 62.236288 
L 311.751212 55.082323 
L 303.968424 50.355251 
L 293.176169 45.352787 
L 287.192363 42.730447 
L 270.416303 37.875481 
L 253.640243 35.762775 
L 236.864182 35.873862 
L 220.088122 39.184954 
L 210.203448 45.352787 
L 203.312062 50.948627 
L 200.774936 55.082323 
L 196.470169 64.811858 
L 194.044084 74.541394 
L 192.683099 84.270929 
L 191.987988 94.000465 
L 191.774213 103.73 
L 191.987988 113.459535 
L 192.683099 123.189071 
L 194.044084 132.918606 
L 196.470169 142.648142 
L 200.774936 152.377677 
L 203.312062 156.511373 
L 210.203448 162.107213 
z
M 218.433787 152.377677 
L 207.30807 142.648142 
L 203.312062 137.098011 
L 201.552166 132.918606 
L 198.830197 123.189071 
L 197.439975 113.459535 
L 197.012424 103.73 
L 197.439975 94.000465 
L 198.830197 84.270929 
L 201.552166 74.541394 
L 203.312062 70.361989 
L 207.30807 64.811858 
L 218.433787 55.082323 
L 220.088122 53.906459 
L 236.864182 49.048264 
L 253.640243 48.885271 
L 270.416303 51.985137 
L 278.784771 55.082323 
L 287.192363 58.389738 
L 298.118586 64.811858 
L 303.968424 69.449889 
L 309.71962 74.541394 
L 316.834541 84.270929 
L 320.468426 94.000465 
L 320.744484 96.33216 
L 321.907487 103.73 
L 320.744484 111.12784 
L 320.468426 113.459535 
L 316.834541 123.189071 
L 309.71962 132.918606 
L 303.968424 138.010111 
L 298.118586 142.648142 
L 287.192363 149.070262 
L 278.784771 152.377677 
L 270.416303 155.474863 
L 253.640243 158.574729 
L 236.864182 158.411736 
L 220.088122 153.553541 
z
" clip-path="url(#p82ff4feabf)" style="fill: #df5337"></path>
   </g>
   <g id="PathCollection_28">
    <path d="M 220.088122 153.553541 
L 236.864182 158.411736 
L 253.640243 158.574729 
L 270.416303 155.474863 
L 278.784771 152.377677 
L 287.192363 149.070262 
L 298.118586 142.648142 
L 303.968424 138.010111 
L 309.71962 132.918606 
L 316.834541 123.189071 
L 320.468426 113.459535 
L 320.744484 111.12784 
L 321.907487 103.73 
L 320.744484 96.33216 
L 320.468426 94.000465 
L 316.834541 84.270929 
L 309.71962 74.541394 
L 303.968424 69.449889 
L 298.118586 64.811858 
L 287.192363 58.389738 
L 278.784771 55.082323 
L 270.416303 51.985137 
L 253.640243 48.885271 
L 236.864182 49.048264 
L 220.088122 53.906459 
L 218.433787 55.082323 
L 207.30807 64.811858 
L 203.312062 70.361989 
L 201.552166 74.541394 
L 198.830197 84.270929 
L 197.439975 94.000465 
L 197.012424 103.73 
L 197.439975 113.459535 
L 198.830197 123.189071 
L 201.552166 132.918606 
L 203.312062 137.098011 
L 207.30807 142.648142 
L 218.433787 152.377677 
z
M 220.19796 142.648142 
L 220.088122 142.603174 
L 210.740187 132.918606 
L 205.463969 123.189071 
L 203.312062 115.614156 
L 202.891962 113.459535 
L 202.250635 103.73 
L 202.891962 94.000465 
L 203.312062 91.845844 
L 205.463969 84.270929 
L 210.740187 74.541394 
L 220.088122 64.856826 
L 220.19796 64.811858 
L 236.864182 58.873687 
L 253.640243 58.672849 
L 270.416303 62.492481 
L 275.738815 64.811858 
L 287.192363 70.854102 
L 292.259954 74.541394 
L 301.266474 84.270929 
L 303.968424 89.700239 
L 306.217544 94.000465 
L 307.8939 103.73 
L 306.217544 113.459535 
L 303.968424 117.759761 
L 301.266474 123.189071 
L 292.259954 132.918606 
L 287.192363 136.605898 
L 275.738815 142.648142 
L 270.416303 144.967519 
L 253.640243 148.787151 
L 236.864182 148.586313 
z
" clip-path="url(#p82ff4feabf)" style="fill: #ef6e21"></path>
   </g>
   <g id="PathCollection_29">
    <path d="M 236.864182 148.586313 
L 253.640243 148.787151 
L 270.416303 144.967519 
L 275.738815 142.648142 
L 287.192363 136.605898 
L 292.259954 132.918606 
L 301.266474 123.189071 
L 303.968424 117.759761 
L 306.217544 113.459535 
L 307.8939 103.73 
L 306.217544 94.000465 
L 303.968424 89.700239 
L 301.266474 84.270929 
L 292.259954 74.541394 
L 287.192363 70.854102 
L 275.738815 64.811858 
L 270.416303 62.492481 
L 253.640243 58.672849 
L 236.864182 58.873687 
L 220.19796 64.811858 
L 220.088122 64.856826 
L 210.740187 74.541394 
L 205.463969 84.270929 
L 203.312062 91.845844 
L 202.891962 94.000465 
L 202.250635 103.73 
L 202.891962 113.459535 
L 203.312062 115.614156 
L 205.463969 123.189071 
L 210.740187 132.918606 
L 220.088122 142.603174 
L 220.19796 142.648142 
z
M 220.765986 132.918606 
L 220.088122 132.513584 
L 213.407589 123.189071 
L 209.814544 113.459535 
L 208.709534 103.73 
L 209.814544 94.000465 
L 213.407589 84.270929 
L 220.088122 74.946416 
L 220.765986 74.541394 
L 236.864182 67.440871 
L 253.640243 67.190329 
L 270.416303 71.955246 
L 275.210335 74.541394 
L 287.192363 83.766737 
L 287.706691 84.270929 
L 293.840028 94.000465 
L 295.726283 103.73 
L 293.840028 113.459535 
L 287.706691 123.189071 
L 287.192363 123.693263 
L 275.210335 132.918606 
L 270.416303 135.504754 
L 253.640243 140.269671 
L 236.864182 140.019129 
z
" clip-path="url(#p82ff4feabf)" style="fill: #f98c0a"></path>
   </g>
   <g id="PathCollection_30">
    <path d="M 236.864182 140.019129 
L 253.640243 140.269671 
L 270.416303 135.504754 
L 275.210335 132.918606 
L 287.192363 123.693263 
L 287.706691 123.189071 
L 293.840028 113.459535 
L 295.726283 103.73 
L 293.840028 94.000465 
L 287.706691 84.270929 
L 287.192363 83.766737 
L 275.210335 74.541394 
L 270.416303 71.955246 
L 253.640243 67.190329 
L 236.864182 67.440871 
L 220.765986 74.541394 
L 220.088122 74.946416 
L 213.407589 84.270929 
L 209.814544 94.000465 
L 208.709534 103.73 
L 209.814544 113.459535 
L 213.407589 123.189071 
L 220.088122 132.513584 
L 220.765986 132.918606 
z
M 222.503873 123.189071 
L 220.088122 120.682542 
L 216.859903 113.459535 
L 215.478641 103.73 
L 216.859903 94.000465 
L 220.088122 86.777458 
L 222.503873 84.270929 
L 236.864182 75.737426 
L 253.640243 75.391979 
L 270.416303 81.961851 
L 273.593439 84.270929 
L 281.585378 94.000465 
L 284.04323 103.73 
L 281.585378 113.459535 
L 273.593439 123.189071 
L 270.416303 125.498149 
L 253.640243 132.068021 
L 236.864182 131.722574 
z
" clip-path="url(#p82ff4feabf)" style="fill: #fcae12"></path>
   </g>
   <g id="PathCollection_31">
    <path d="M 236.864182 131.722574 
L 253.640243 132.068021 
L 270.416303 125.498149 
L 273.593439 123.189071 
L 281.585378 113.459535 
L 284.04323 103.73 
L 281.585378 94.000465 
L 273.593439 84.270929 
L 270.416303 81.961851 
L 253.640243 75.391979 
L 236.864182 75.737426 
L 222.503873 84.270929 
L 220.088122 86.777458 
L 216.859903 94.000465 
L 215.478641 103.73 
L 216.859903 113.459535 
L 220.088122 120.682542 
L 222.503873 123.189071 
z
M 227.388699 113.459535 
L 224.218573 103.73 
L 227.388699 94.000465 
L 236.864182 84.974265 
L 253.640243 84.384895 
L 268.298113 94.000465 
L 270.416303 98.415298 
L 271.998116 103.73 
L 270.416303 109.044702 
L 268.298113 113.459535 
L 253.640243 123.075105 
L 236.864182 122.485735 
z
" clip-path="url(#p82ff4feabf)" style="fill: #f7d340"></path>
   </g>
   <g id="PathCollection_32">
    <path d="M 236.864182 122.485735 
L 253.640243 123.075105 
L 268.298113 113.459535 
L 270.416303 109.044702 
L 271.998116 103.73 
L 270.416303 98.415298 
L 268.298113 94.000465 
L 253.640243 84.384895 
L 236.864182 84.974265 
L 227.388699 94.000465 
L 224.218573 103.73 
L 227.388699 113.459535 
z
M 244.109602 103.73 
L 253.640243 102.651221 
L 254.210469 103.73 
L 253.640243 104.808779 
z
" clip-path="url(#p82ff4feabf)" style="fill: #f2f482"></path>
   </g>
   <g id="PathCollection_33">
    <path d="M 253.640243 104.808779 
L 254.210469 103.73 
L 253.640243 102.651221 
L 244.109602 103.73 
z
" clip-path="url(#p82ff4feabf)" style="fill: #fcffa4"></path>
   </g>
   <g id="patch_3">
    <path d="M 18.775399 201.025354 
L 18.775399 6.434646 
" style="fill: none; stroke: #000000; stroke-linejoin: miter; stroke-linecap: square"></path>
   </g>
   <g id="patch_4">
    <path d="M 18.775399 201.025354 
L 354.296604 201.025354 
" style="fill: none; stroke: #000000; stroke-linejoin: miter; stroke-linecap: square"></path>
   </g>
  </g>
 </g>
 <defs>
  <clipPath id="p82ff4feabf">
   <rect x="18.775399" y="6.434646" width="335.521205" height="194.590709"></rect>
  </clipPath>
 </defs>
</svg>